<svg width="32" height="33" viewBox="0 0 32 33" fill="none" xmlns="http://www.w3.org/2000/svg">
<path fill-rule="evenodd" clip-rule="evenodd" d="M31.3939 4.03633C31.5861 3.84442 31.7385 3.61654 31.8426 3.36571C31.9467 3.11487 32.0004 2.84599 32.0005 2.57442C32.0007 2.30285 31.9474 2.03391 31.8436 1.78295C31.7398 1.53199 31.5876 1.30392 31.3957 1.11177C31.2038 0.919624 30.9759 0.767159 30.7251 0.663079C30.4743 0.558999 30.2054 0.505344 29.9338 0.505177C29.6623 0.50501 29.3933 0.558335 29.1423 0.662106C28.8914 0.765878 28.6633 0.918063 28.4712 1.10997L16 13.5811L3.53243 1.10997C3.14437 0.721915 2.61804 0.503906 2.06925 0.503906C1.52045 0.503906 0.994127 0.721915 0.606068 1.10997C0.218009 1.49803 4.08887e-09 2.02435 0 2.57315C-4.08887e-09 3.12195 0.218009 3.64827 0.606068 4.03633L13.0772 16.5039L0.606068 28.9715C0.413921 29.1636 0.261501 29.3917 0.157512 29.6428C0.0535223 29.8938 0 30.1629 0 30.4347C0 30.7064 0.0535223 30.9755 0.157512 31.2265C0.261501 31.4776 0.413921 31.7057 0.606068 31.8978C0.994127 32.2859 1.52045 32.5039 2.06925 32.5039C2.34098 32.5039 2.61006 32.4504 2.86111 32.3464C3.11217 32.2424 3.34028 32.09 3.53243 31.8978L16 19.4267L28.4712 31.8978C28.8592 32.2854 29.3854 32.503 29.9338 32.5026C30.4823 32.5023 31.0081 32.2841 31.3957 31.896C31.7833 31.508 32.0009 30.9818 32.0005 30.4334C32.0002 29.8849 31.782 29.3591 31.3939 28.9715L18.9228 16.5039L31.3939 4.03633Z" fill="#818181"/>
</svg>
