<svg width="11" height="17" viewBox="0 0 11 17" fill="none" xmlns="http://www.w3.org/2000/svg">
<path d="M9.01391 8.97459C9.99797 7.99164 10.5414 6.68225 10.5414 5.29218C10.5414 3.90027 9.9998 2.59272 9.01391 1.60977C8.02984 0.62681 6.71898 0.0839844 5.32734 0.0839844C3.9357 0.0839844 2.62484 0.624976 1.64078 1.60977C0.656719 2.59455 0.113281 3.90027 0.113281 5.29218C0.113281 6.46219 0.496992 7.57352 1.20383 8.48128C1.33785 8.65367 1.48289 8.81688 1.63895 8.97459C1.795 9.13047 1.96023 9.27535 2.13098 9.40922C2.85801 9.97405 3.71539 10.3335 4.62969 10.4545V12.4076H2.53672C2.45594 12.4076 2.38984 12.4736 2.38984 12.5543V13.6546C2.38984 13.7353 2.45594 13.8013 2.53672 13.8013H4.62969V16.3688C4.62969 16.4495 4.69578 16.5155 4.77656 16.5155H5.87812C5.95891 16.5155 6.025 16.4495 6.025 16.3688V13.8013H8.11797C8.19875 13.8013 8.26484 13.7353 8.26484 13.6546V12.5543C8.26484 12.4736 8.19875 12.4076 8.11797 12.4076H6.025V10.4545C7.1541 10.3041 8.19508 9.7925 9.01391 8.97459ZM5.32734 9.10663C4.30656 9.10663 3.35004 8.71052 2.62668 7.9898C1.90516 7.26909 1.50859 6.31181 1.50859 5.29218C1.50859 4.27255 1.90516 3.3171 2.62668 2.59455C3.3482 1.87201 4.30656 1.47773 5.32734 1.47773C6.34812 1.47773 7.30465 1.87384 8.02801 2.59455C8.74953 3.31527 9.14609 4.27255 9.14609 5.29218C9.14609 6.31181 8.74953 7.26726 8.02801 7.9898C7.30465 8.71052 6.34812 9.10663 5.32734 9.10663Z" fill="white"/>
</svg>
