<svg width="30" height="30" viewBox="0 0 30 30" fill="none" xmlns="http://www.w3.org/2000/svg">
<rect width="30" height="30" rx="15" fill="#F0924F" fill-opacity="0.77"/>
<path d="M14.5003 13.6253C10.9331 13.6253 5.87534 19.1399 5.87534 22.6209C5.87534 24.1887 7.0797 25.1253 9.09804 25.1253C11.292 25.1253 12.7408 23.9987 14.5003 23.9987C16.2752 23.9987 17.728 25.1253 19.9026 25.1253C21.921 25.1253 23.1253 24.1887 23.1253 22.6209C23.1253 19.1399 18.0676 13.6253 14.5003 13.6253ZM7.88425 13.0589C7.41706 11.5023 5.97777 10.4943 4.66964 10.8069C3.36152 11.1196 2.68005 12.6348 3.14724 14.1913C3.61443 15.7479 5.05372 16.7559 6.36185 16.4433C7.66997 16.1306 8.35144 14.6154 7.88425 13.0589ZM11.69 12.1254C13.0799 11.7597 13.7753 9.88198 13.2434 7.93147C12.7116 5.98096 11.1537 4.69664 9.76378 5.06231C8.3739 5.42797 7.67851 7.30571 8.21038 9.25621C8.74226 11.2067 10.3006 12.4915 11.69 12.1254ZM24.3306 10.8074C23.0225 10.4947 21.5836 11.5028 21.116 13.0593C20.6488 14.6158 21.3303 16.1311 22.6384 16.4437C23.9465 16.7564 25.3854 15.7483 25.853 14.1918C26.3202 12.6352 25.6387 11.12 24.3306 10.8074ZM17.3107 12.1254C18.7005 12.491 20.2584 11.2067 20.7903 9.25621C21.3222 7.30571 20.6268 5.42842 19.2369 5.06231C17.847 4.6962 16.2891 5.98096 15.7573 7.93147C15.2254 9.88198 15.9208 11.7597 17.3107 12.1254Z" fill="#FFF500"/>
</svg>
