<svg width="32" height="28" viewBox="0 0 32 28" fill="none" xmlns="http://www.w3.org/2000/svg">
<g filter="url(#filter0_d_537_124)">
<path d="M27.5541 0.95576L3.91411 10.0718C2.30078 10.7198 2.31011 11.6198 3.61811 12.0211L9.68744 13.9144L23.7301 5.05443C24.3941 4.65043 25.0008 4.86776 24.5021 5.31043L13.1248 15.5784H13.1221L13.1248 15.5798L12.7061 21.8358C13.3194 21.8358 13.5901 21.5544 13.9341 21.2224L16.8821 18.3558L23.0141 22.8851C24.1448 23.5078 24.9568 23.1878 25.2381 21.8384L29.2634 2.86776C29.6754 1.21576 28.6328 0.46776 27.5541 0.95576V0.95576Z" fill="#F0924F"/>
<path d="M27.5541 0.95576L27.7602 1.41131C28.1586 1.23106 28.4568 1.31076 28.6203 1.46877C28.7905 1.63325 28.959 2.02244 28.7783 2.74677L28.7762 2.75534L28.7743 2.76398L24.749 21.7346L24.7486 21.7364C24.6219 22.3443 24.4057 22.5705 24.2394 22.6453C24.0732 22.7201 23.7746 22.7266 23.2835 22.4624L17.1792 17.9536L16.8378 17.7014L16.5335 17.9973L13.5869 20.8627L13.5855 20.864L13.5746 20.8745C13.4386 21.0058 13.3442 21.0969 13.2521 21.1656L13.6102 15.8138L24.834 5.68435C24.8346 5.68388 24.8351 5.68341 24.8356 5.68294C24.9883 5.54704 25.1741 5.33154 25.1849 5.04569C25.191 4.88455 25.1383 4.72995 25.035 4.60692C24.9384 4.4918 24.8177 4.42746 24.7145 4.39202C24.5138 4.32314 24.293 4.33204 24.0995 4.37214C23.8965 4.41422 23.6809 4.49911 23.4702 4.62728L23.4702 4.62722L23.4633 4.63156L9.61592 13.3684L3.76701 11.5438L3.76478 11.5431C3.48016 11.4558 3.31324 11.3545 3.22923 11.275C3.1894 11.2374 3.17525 11.2114 3.1708 11.201C3.16759 11.1936 3.16784 11.1914 3.16806 11.1894L3.1681 11.189C3.16885 11.1815 3.18241 11.1023 3.33451 10.9678C3.48297 10.8366 3.72836 10.6855 4.09733 10.537L27.734 1.42228L27.5541 0.95576Z" stroke="black"/>
</g>
<defs>
<filter id="filter0_d_537_124" x="-1.33203" y="0.808594" width="34.6875" height="30.3818" filterUnits="userSpaceOnUse" color-interpolation-filters="sRGB">
<feFlood flood-opacity="0" result="BackgroundImageFix"/>
<feColorMatrix in="SourceAlpha" type="matrix" values="0 0 0 0 0 0 0 0 0 0 0 0 0 0 0 0 0 0 127 0" result="hardAlpha"/>
<feOffset dy="4"/>
<feGaussianBlur stdDeviation="2"/>
<feComposite in2="hardAlpha" operator="out"/>
<feColorMatrix type="matrix" values="0 0 0 0 0 0 0 0 0 0 0 0 0 0 0 0 0 0 0.25 0"/>
<feBlend mode="normal" in2="BackgroundImageFix" result="effect1_dropShadow_537_124"/>
<feBlend mode="normal" in="SourceGraphic" in2="effect1_dropShadow_537_124" result="shape"/>
</filter>
</defs>
</svg>
