<svg width="40" height="40" viewBox="0 0 40 40" fill="none" xmlns="http://www.w3.org/2000/svg">
<g clip-path="url(#clip0_197_186)">
<path d="M20.0006 17.5001C13.7967 17.5001 5.0006 27.0907 5.0006 33.1446C5.0006 35.8712 7.09513 37.5001 10.6053 37.5001C14.4209 37.5001 16.9404 35.5407 20.0006 35.5407C23.0873 35.5407 25.6139 37.5001 29.3959 37.5001C32.9061 37.5001 35.0006 35.8712 35.0006 33.1446C35.0006 27.0907 26.2045 17.5001 20.0006 17.5001ZM8.49435 16.5149C7.68185 13.8079 5.17872 12.0547 2.90372 12.5985C0.628725 13.1422 -0.556432 15.7774 0.256068 18.4844C1.06857 21.1915 3.57169 22.9446 5.84669 22.4008C8.12169 21.8571 9.30685 19.2219 8.49435 16.5149ZM15.1131 14.8915C17.5303 14.2555 18.7397 10.9899 17.8147 7.59772C16.8897 4.20553 14.1803 1.97194 11.7631 2.60787C9.34591 3.24381 8.13654 6.50944 9.06154 9.90162C9.98654 13.2938 12.6967 15.5282 15.1131 14.8915ZM37.0967 12.5993C34.8217 12.0555 32.3193 13.8087 31.5061 16.5157C30.6936 19.2227 31.8787 21.8579 34.1537 22.4016C36.4287 22.9454 38.9311 21.1922 39.7443 18.4852C40.5568 15.7782 39.3717 13.143 37.0967 12.5993ZM24.8881 14.8915C27.3053 15.5274 30.0147 13.2938 30.9397 9.90162C31.8647 6.50944 30.6553 3.24459 28.2381 2.60787C25.8209 1.97116 23.1115 4.20553 22.1865 7.59772C21.2615 10.9899 22.4709 14.2555 24.8881 14.8915Z" fill="#F0924F"/>
</g>
<defs>
<clipPath id="clip0_197_186">
<rect width="40" height="40" fill="white"/>
</clipPath>
</defs>
</svg>
