<svg width="20" height="20" viewBox="0 0 20 20" fill="none" xmlns="http://www.w3.org/2000/svg">
<path d="M13.1029 11.2702L12.1862 10.3535C12.5473 9.3674 12.3598 8.54796 11.6237 7.89518C10.8876 7.2424 10.089 7.07574 9.22787 7.39518L8.3112 6.47852C8.54731 6.32574 8.8112 6.21463 9.10287 6.14518C9.39453 6.07574 9.69314 6.04102 9.9987 6.04102C10.9848 6.04102 11.8216 6.38477 12.5091 7.07227C13.1966 7.75977 13.5404 8.59657 13.5404 9.58268C13.5404 9.88824 13.5022 10.1903 13.4258 10.4889C13.3494 10.7875 13.2418 11.048 13.1029 11.2702ZM15.7904 13.9577L14.957 13.1243C15.6376 12.6243 16.2313 12.0653 16.7383 11.4473C17.2452 10.8292 17.6168 10.2077 17.8529 9.58268C17.1584 8.04102 16.1168 6.82227 14.7279 5.92643C13.339 5.0306 11.832 4.58268 10.207 4.58268C9.6237 4.58268 9.02648 4.63824 8.41537 4.74935C7.80425 4.86046 7.32509 4.9924 6.97786 5.14518L6.01953 4.16602C6.50564 3.94379 7.12717 3.74935 7.88411 3.58268C8.64106 3.41602 9.38064 3.33268 10.1029 3.33268C12.089 3.33268 13.9049 3.89865 15.5508 5.0306C17.1966 6.16254 18.4015 7.6799 19.1654 9.58268C18.8043 10.4716 18.339 11.2841 17.7695 12.0202C17.2001 12.7563 16.5404 13.4021 15.7904 13.9577ZM16.9987 18.666L13.4987 15.2285C13.0126 15.423 12.464 15.5723 11.8529 15.6764C11.2418 15.7806 10.6237 15.8327 9.9987 15.8327C7.97092 15.8327 6.13064 15.2667 4.47786 14.1348C2.82509 13.0028 1.60981 11.4855 0.832031 9.58268C1.10981 8.86046 1.49523 8.1556 1.98828 7.4681C2.48134 6.7806 3.08203 6.12435 3.79036 5.49935L1.16536 2.87435L2.04036 1.97852L17.8112 17.7493L16.9987 18.666ZM4.64453 6.37435C4.13064 6.74935 3.63411 7.2424 3.15495 7.85352C2.67578 8.46463 2.33203 9.04102 2.1237 9.58268C2.83203 11.1243 3.898 12.3431 5.32161 13.2389C6.74523 14.1348 8.35981 14.5827 10.1654 14.5827C10.6237 14.5827 11.0751 14.5549 11.5195 14.4993C11.964 14.4438 12.2973 14.3605 12.5195 14.2493L11.1862 12.916C11.0334 12.9855 10.8459 13.0375 10.6237 13.0723C10.4015 13.107 10.1931 13.1243 9.9987 13.1243C9.02648 13.1243 8.19314 12.7841 7.4987 12.1035C6.80425 11.423 6.45703 10.5827 6.45703 9.58268C6.45703 9.37435 6.47439 9.16602 6.50911 8.95768C6.54384 8.74935 6.59592 8.56185 6.66536 8.39518L4.64453 6.37435Z" fill="black"/>
</svg>
