<svg width="23" height="23" viewBox="0 0 23 23" fill="none" xmlns="http://www.w3.org/2000/svg">
<g clip-path="url(#clip0_197_127)">
<path d="M11.5003 10.0623C7.9331 10.0623 2.87534 15.5769 2.87534 19.0579C2.87534 20.6257 4.0797 21.5623 6.09804 21.5623C8.29202 21.5623 9.74075 20.4357 11.5003 20.4357C13.2752 20.4357 14.728 21.5623 16.9026 21.5623C18.921 21.5623 20.1253 20.6257 20.1253 19.0579C20.1253 15.5769 15.0676 10.0623 11.5003 10.0623ZM4.88425 9.49586C4.41706 7.93932 2.97777 6.93127 1.66964 7.24393C0.361517 7.55659 -0.319948 9.0718 0.147239 10.6283C0.614427 12.1849 2.05372 13.1929 3.36185 12.8803C4.66997 12.5676 5.35144 11.0524 4.88425 9.49586ZM8.69003 8.56239C10.0799 8.19672 10.7753 6.31899 10.2434 4.36848C9.71156 2.41797 8.15366 1.13366 6.76378 1.49932C5.3739 1.86498 4.67851 3.74272 5.21038 5.69323C5.74226 7.64373 7.3006 8.9285 8.69003 8.56239ZM21.3306 7.24438C20.0225 6.93172 18.5836 7.93977 18.116 9.49631C17.6488 11.0529 18.3303 12.5681 19.6384 12.8807C20.9465 13.1934 22.3854 12.1853 22.853 10.6288C23.3202 9.07225 22.6387 7.55703 21.3306 7.24438ZM14.3107 8.56239C15.7005 8.92805 17.2584 7.64373 17.7903 5.69323C18.3222 3.74272 17.6268 1.86543 16.2369 1.49932C14.847 1.13321 13.2891 2.41797 12.7573 4.36848C12.2254 6.31899 12.9208 8.19672 14.3107 8.56239Z" fill="#E51B1B"/>
</g>
<defs>
<clipPath id="clip0_197_127">
<rect width="23" height="23" fill="white"/>
</clipPath>
</defs>
</svg>
