<svg width="60" height="61" viewBox="0 0 60 61" fill="none" xmlns="http://www.w3.org/2000/svg">
<g clip-path="url(#clip0_197_200)">
<rect width="60" height="61" rx="30" fill="#FFE2CD"/>
<path d="M9.69226 52.9889C9.69226 51.2408 10.9987 49.7634 12.7384 49.5705C25.7944 48.1253 34.2643 48.2556 47.2916 49.6026C47.9421 49.671 48.5587 49.9272 49.066 50.3402C49.5732 50.7531 49.9493 51.3049 50.1481 51.9281C50.347 52.5512 50.3601 53.2188 50.1858 53.8492C50.0115 54.4797 49.6574 55.0458 49.1666 55.4783C33.7922 68.8795 25.0058 68.6951 10.7753 55.4918C10.0815 54.8487 9.69226 53.9349 9.69226 52.9906V52.9889Z" fill="#F0924F"/>
<path fill-rule="evenodd" clip-rule="evenodd" d="M47.1173 51.2848C34.1933 49.9479 25.8452 49.8227 12.9229 51.2526C12.4975 51.3022 12.1054 51.5069 11.8215 51.8276C11.5377 52.1483 11.3821 52.5624 11.3846 52.9906C11.3846 53.4746 11.586 53.9332 11.9261 54.2514C18.9796 60.7938 24.3239 63.7502 29.548 63.7688C34.7907 63.7874 40.4226 60.8547 48.0548 54.204C48.2973 53.9882 48.4719 53.7066 48.5573 53.3934C48.6427 53.0803 48.6353 52.749 48.536 52.44C48.4367 52.131 48.2498 51.8574 47.9979 51.6526C47.746 51.4479 47.4401 51.3207 47.1173 51.2865V51.2848ZM12.5523 47.8884C25.7454 46.4279 34.3388 46.5599 47.4676 47.9188C48.4463 48.021 49.3739 48.4063 50.137 49.0275C50.9 49.6487 51.4654 50.479 51.7639 51.4166C52.0623 52.3542 52.081 53.3585 51.8175 54.3065C51.5539 55.2546 51.0197 56.1052 50.2802 56.7543C42.538 63.5031 36.0904 67.1788 29.5378 67.1534C22.9666 67.1297 16.8033 63.3914 9.6263 56.7323C9.11244 56.2536 8.70281 55.6742 8.42299 55.0301C8.14317 54.386 7.99917 53.6912 8.00001 52.9889C7.99754 51.7272 8.46066 50.5089 9.30064 49.5675C10.1406 48.626 11.2984 48.0275 12.5523 47.8867V47.8884Z" fill="#F0924F"/>
<path d="M43.5381 26.5383C43.5381 30.1289 42.1117 33.5724 39.5728 36.1114C37.0339 38.6503 33.5903 40.0767 29.9998 40.0767C26.4092 40.0767 22.9656 38.6503 20.4267 36.1114C17.8878 33.5724 16.4614 30.1289 16.4614 26.5383C16.4614 22.9477 17.8878 19.5042 20.4267 16.9653C22.9656 14.4264 26.4092 13 29.9998 13C33.5903 13 37.0339 14.4264 39.5728 16.9653C42.1117 19.5042 43.5381 22.9477 43.5381 26.5383Z" fill="#F0924F"/>
<path fill-rule="evenodd" clip-rule="evenodd" d="M29.9998 36.6921C32.6927 36.6921 35.2753 35.6223 37.1795 33.7181C39.0837 31.8139 40.1535 29.2313 40.1535 26.5383C40.1535 23.8454 39.0837 21.2627 37.1795 19.3585C35.2753 17.4543 32.6927 16.3846 29.9998 16.3846C27.3068 16.3846 24.7242 17.4543 22.82 19.3585C20.9158 21.2627 19.846 23.8454 19.846 26.5383C19.846 29.2313 20.9158 31.8139 22.82 33.7181C24.7242 35.6223 27.3068 36.6921 29.9998 36.6921ZM29.9998 40.0767C33.5903 40.0767 37.0339 38.6503 39.5728 36.1114C42.1117 33.5724 43.5381 30.1289 43.5381 26.5383C43.5381 22.9477 42.1117 19.5042 39.5728 16.9653C37.0339 14.4264 33.5903 13 29.9998 13C26.4092 13 22.9656 14.4264 20.4267 16.9653C17.8878 19.5042 16.4614 22.9477 16.4614 26.5383C16.4614 30.1289 17.8878 33.5724 20.4267 36.1114C22.9656 38.6503 26.4092 40.0767 29.9998 40.0767Z" fill="#F0924F"/>
</g>
<defs>
<clipPath id="clip0_197_200">
<rect width="60" height="61" rx="30" fill="white"/>
</clipPath>
</defs>
</svg>
