<svg width="41" height="41" viewBox="0 0 41 41" fill="none" xmlns="http://www.w3.org/2000/svg">
<path d="M14.3724 20.5007L22.5391 28.6673L22.5391 12.334L14.3724 20.5007ZM0.0807291 20.5007C0.0807291 17.6763 0.617007 15.0222 1.68956 12.5382C2.76076 10.0541 4.2151 7.89336 6.0526 6.05586C7.8901 4.21836 10.0509 2.76401 12.5349 1.69282C15.0189 0.620262 17.6731 0.0839844 20.4974 0.0839844C23.3217 0.0839844 25.9759 0.620262 28.4599 1.69282C30.9439 2.76401 33.1047 4.21836 34.9422 6.05586C36.7797 7.89336 38.2347 10.0541 39.3073 12.5382C40.3785 15.0222 40.9141 17.6763 40.9141 20.5007C40.9141 23.325 40.3785 25.9791 39.3073 28.4632C38.2347 30.9472 36.7797 33.1079 34.9422 34.9454C33.1047 36.7829 30.9439 38.2373 28.4599 39.3085C25.9759 40.381 23.3217 40.9173 20.4974 40.9173C17.6731 40.9173 15.0189 40.381 12.5349 39.3085C10.0509 38.2373 7.8901 36.7829 6.0526 34.9454C4.2151 33.1079 2.76076 30.9472 1.68956 28.4632C0.617007 25.9791 0.0807291 23.325 0.0807291 20.5007ZM4.16406 20.5007C4.16406 25.0604 5.74636 28.9225 8.91094 32.0871C12.0755 35.2517 15.9377 36.834 20.4974 36.834C25.0571 36.834 28.9193 35.2517 32.0839 32.0871C35.2484 28.9225 36.8307 25.0604 36.8307 20.5007C36.8307 15.9409 35.2484 12.0788 32.0839 8.91419C28.9193 5.74961 25.0571 4.16732 20.4974 4.16732C15.9377 4.16732 12.0755 5.74961 8.91094 8.91419C5.74636 12.0788 4.16406 15.9409 4.16406 20.5007Z" fill="#F0924F"/>
</svg>
