<svg width="49" height="49" viewBox="0 0 49 49" fill="none" xmlns="http://www.w3.org/2000/svg">
  <path d="M18.3724 24.5007L26.5391 32.6673L26.5391 16.334L18.3724 24.5007ZM4.08073 24.5007C4.08073 21.6763 4.61701 19.0222 5.68956 16.5382C6.76076 14.0541 8.2151 11.8934 10.0526 10.0559C11.8901 8.21836 14.0509 6.76401 16.5349 5.69282C19.0189 4.62026 21.6731 4.08398 24.4974 4.08398C27.3217 4.08398 29.9759 4.62026 32.4599 5.69282C34.9439 6.76401 37.1047 8.21836 38.9422 10.0559C40.7797 11.8934 42.2347 14.0541 43.3073 16.5382C44.3785 19.0222 44.9141 21.6763 44.9141 24.5007C44.9141 27.325 44.3785 29.9791 43.3073 32.4632C42.2347 34.9472 40.7797 37.1079 38.9422 38.9454C37.1047 40.7829 34.9439 42.2373 32.4599 43.3085C29.9759 44.381 27.3217 44.9173 24.4974 44.9173C21.6731 44.9173 19.0189 44.381 16.5349 43.3085C14.0509 42.2373 11.8901 40.7829 10.0526 38.9454C8.2151 37.1079 6.76076 34.9472 5.68956 32.4632C4.61701 29.9791 4.08073 27.325 4.08073 24.5007ZM8.16406 24.5007C8.16406 29.0604 9.74636 32.9225 12.9109 36.0871C16.0755 39.2517 19.9377 40.834 24.4974 40.834C29.0571 40.834 32.9193 39.2517 36.0839 36.0871C39.2484 32.9225 40.8307 29.0604 40.8307 24.5007C40.8307 19.9409 39.2484 16.0788 36.0839 12.9142C32.9193 9.74961 29.0571 8.16732 24.4974 8.16732C19.9377 8.16732 16.0755 9.74961 12.9109 12.9142C9.74636 16.0788 8.16406 19.9409 8.16406 24.5007Z" fill="#F0924F"/>
</svg>
