<svg width="16" height="16" viewBox="0 0 16 16" fill="none" xmlns="http://www.w3.org/2000/svg">
<path d="M2.85388 1.02724L8.00054 6.1739L13.1205 1.0539C13.2336 0.933526 13.3699 0.837229 13.5211 0.770786C13.6723 0.704343 13.8354 0.669122 14.0005 0.667236C14.3542 0.667236 14.6933 0.807712 14.9434 1.05776C15.1934 1.30781 15.3339 1.64695 15.3339 2.00057C15.337 2.16404 15.3067 2.32642 15.2447 2.47774C15.1828 2.62907 15.0907 2.76615 14.9739 2.88057L9.78721 8.00057L14.9739 13.1872C15.1936 13.4022 15.3225 13.6934 15.3339 14.0006C15.3339 14.3542 15.1934 14.6933 14.9434 14.9434C14.6933 15.1934 14.3542 15.3339 14.0005 15.3339C13.8306 15.341 13.6611 15.3126 13.5027 15.2506C13.3443 15.1886 13.2006 15.0944 13.0805 14.9739L8.00054 9.82724L2.86721 14.9606C2.75455 15.0769 2.61996 15.1698 2.47121 15.2339C2.32246 15.298 2.1625 15.332 2.00054 15.3339C1.64692 15.3339 1.30778 15.1934 1.05773 14.9434C0.807685 14.6933 0.667209 14.3542 0.667209 14.0006C0.6641 13.8371 0.69443 13.6747 0.756336 13.5234C0.818242 13.3721 0.910419 13.235 1.02721 13.1206L6.21388 8.00057L1.02721 2.8139C0.807456 2.59891 0.678595 2.30779 0.667209 2.00057C0.667209 1.64695 0.807685 1.30781 1.05773 1.05776C1.30778 0.807712 1.64692 0.667236 2.00054 0.667236C2.32054 0.671236 2.62721 0.80057 2.85388 1.02724Z" fill="#111C2C"/>
</svg>
