<svg xmlns="http://www.w3.org/2000/svg" width="20" height="20" viewBox="0 0 20 20" fill="none">
  <path fill-rule="evenodd" clip-rule="evenodd" d="M17.697 3.76621C17.793 3.67026 17.8693 3.55632 17.9213 3.4309C17.9734 3.30548 18.0002 3.17104 18.0003 3.03526C18.0003 2.89947 17.9737 2.765 17.9218 2.63952C17.8699 2.51404 17.7938 2.40001 17.6979 2.30393C17.6019 2.20786 17.488 2.13163 17.3626 2.07959C17.2371 2.02755 17.1027 2.00072 16.9669 2.00064C16.8311 2.00055 16.6967 2.02721 16.5712 2.0791C16.4457 2.13099 16.3317 2.20708 16.2356 2.30303L10 8.53862L3.76621 2.30303C3.57218 2.109 3.30902 2 3.03462 2C2.76022 2 2.49706 2.109 2.30303 2.30303C2.109 2.49706 2 2.76022 2 3.03462C2 3.30902 2.109 3.57218 2.30303 3.76621L8.53862 10L2.30303 16.2338C2.20696 16.3299 2.13075 16.4439 2.07876 16.5694C2.02676 16.695 2 16.8295 2 16.9654C2 17.1012 2.02676 17.2358 2.07876 17.3613C2.13075 17.4868 2.20696 17.6009 2.30303 17.697C2.49706 17.891 2.76022 18 3.03462 18C3.17049 18 3.30503 17.9732 3.43056 17.9212C3.55608 17.8692 3.67014 17.793 3.76621 17.697L10 11.4614L16.2356 17.697C16.4296 17.8908 16.6927 17.9995 16.9669 17.9994C17.2411 17.9992 17.5041 17.8901 17.6979 17.6961C17.8917 17.502 18.0004 17.239 18.0003 16.9647C18.0001 16.6905 17.891 16.4276 17.697 16.2338L11.4614 10L17.697 3.76621Z" fill="#F0924F"/>
</svg>