<svg width="28" height="28" viewBox="0 0 28 28" fill="none" xmlns="http://www.w3.org/2000/svg">
  <path d="M13.988 0.666016C6.62797 0.666016 0.667969 6.63935 0.667969 13.9993C0.667969 21.3593 6.62797 27.3327 13.988 27.3327C21.3613 27.3327 27.3346 21.3593 27.3346 13.9993C27.3346 6.63935 21.3613 0.666016 13.988 0.666016ZM14.0013 24.666C8.10797 24.666 3.33464 19.8927 3.33464 13.9993C3.33464 8.10602 8.10797 3.33268 14.0013 3.33268C19.8946 3.33268 24.668 8.10602 24.668 13.9993C24.668 19.8927 19.8946 24.666 14.0013 24.666ZM13.708 7.33268H13.628C13.0946 7.33268 12.668 7.75935 12.668 8.29268V14.586C12.668 15.0527 12.908 15.4927 13.3213 15.7327L18.8546 19.0527C19.308 19.3193 19.8946 19.186 20.1613 18.7327C20.2283 18.6247 20.2728 18.5044 20.2923 18.3789C20.3117 18.2533 20.3057 18.1251 20.2746 18.002C20.2435 17.8788 20.188 17.7632 20.1112 17.6619C20.0345 17.5607 19.9382 17.4759 19.828 17.4127L14.668 14.346V8.29268C14.668 7.75935 14.2413 7.33268 13.708 7.33268Z" fill="#111C2C"/>
</svg>
