<svg width="16" height="17" viewBox="0 0 16 17" fill="none" xmlns="http://www.w3.org/2000/svg">
<path d="M4 1C4 0.867392 3.94732 0.740215 3.85355 0.646447C3.75979 0.552678 3.63261 0.5 3.5 0.5C3.36739 0.5 3.24021 0.552678 3.14645 0.646447C3.05268 0.740215 3 0.867392 3 1V1.5H2C1.46957 1.5 0.960859 1.71071 0.585786 2.08579C0.210714 2.46086 0 2.96957 0 3.5L0 4.5H16V3.5C16 2.96957 15.7893 2.46086 15.4142 2.08579C15.0391 1.71071 14.5304 1.5 14 1.5H13V1C13 0.867392 12.9473 0.740215 12.8536 0.646447C12.7598 0.552678 12.6326 0.5 12.5 0.5C12.3674 0.5 12.2402 0.552678 12.1464 0.646447C12.0527 0.740215 12 0.867392 12 1V1.5H4V1ZM16 14.5V5.5H0V14.5C0 15.0304 0.210714 15.5391 0.585786 15.9142C0.960859 16.2893 1.46957 16.5 2 16.5H14C14.5304 16.5 15.0391 16.2893 15.4142 15.9142C15.7893 15.5391 16 15.0304 16 14.5ZM12.5 7.5H13.5C13.6326 7.5 13.7598 7.55268 13.8536 7.64645C13.9473 7.74021 14 7.86739 14 8V9C14 9.13261 13.9473 9.25979 13.8536 9.35355C13.7598 9.44732 13.6326 9.5 13.5 9.5H12.5C12.3674 9.5 12.2402 9.44732 12.1464 9.35355C12.0527 9.25979 12 9.13261 12 9V8C12 7.86739 12.0527 7.74021 12.1464 7.64645C12.2402 7.55268 12.3674 7.5 12.5 7.5Z" fill="white"/>
</svg>
