<svg width="12" height="12" viewBox="0 0 12 12" fill="none" xmlns="http://www.w3.org/2000/svg">
<circle cx="6" cy="6" r="6" fill="white"/>
<path fill-rule="evenodd" clip-rule="evenodd" d="M8.28372 4.15002C8.31223 4.12155 8.33485 4.08774 8.35029 4.05053C8.36573 4.01332 8.37369 3.97343 8.37371 3.93314C8.37374 3.89286 8.36582 3.85296 8.35043 3.81573C8.33504 3.7785 8.31246 3.74466 8.28399 3.71616C8.25552 3.68765 8.22171 3.66503 8.1845 3.64959C8.14729 3.63415 8.1074 3.62619 8.06711 3.62617C8.02682 3.62614 7.98692 3.63405 7.94969 3.64945C7.91246 3.66484 7.87863 3.68742 7.85012 3.71589L5.99999 5.56602L4.15039 3.71589C4.09282 3.65832 4.01474 3.62598 3.93332 3.62598C3.85191 3.62598 3.77382 3.65832 3.71625 3.71589C3.65869 3.77346 3.62634 3.85154 3.62634 3.93296C3.62634 4.01437 3.65869 4.09245 3.71625 4.15002L5.56639 5.99962L3.71625 7.84922C3.68775 7.87773 3.66514 7.91157 3.64971 7.94881C3.63428 7.98606 3.62634 8.02598 3.62634 8.06629C3.62634 8.1066 3.63428 8.14652 3.64971 8.18376C3.66514 8.22101 3.68775 8.25485 3.71625 8.28335C3.77382 8.34092 3.85191 8.37327 3.93332 8.37327C3.97363 8.37327 4.01355 8.36533 4.0508 8.3499C4.08804 8.33447 4.12188 8.31186 4.15039 8.28335L5.99999 6.43322L7.85012 8.28335C7.90769 8.34085 7.98574 8.37313 8.06711 8.37308C8.14848 8.37303 8.22649 8.34066 8.28399 8.28309C8.34149 8.22552 8.37376 8.14747 8.37371 8.0661C8.37366 7.98473 8.34129 7.90672 8.28372 7.84922L6.43359 5.99962L8.28372 4.15002Z" fill="#D83E3E"/>
</svg>
