<svg width="22" height="28" viewBox="0 0 22 28" fill="none" xmlns="http://www.w3.org/2000/svg">
  <path d="M10.9987 13.9993C11.732 13.9993 12.36 13.738 12.8827 13.2153C13.4045 12.6936 13.6654 12.066 13.6654 11.3327C13.6654 10.5993 13.4045 9.97135 12.8827 9.44868C12.36 8.9269 11.732 8.66602 10.9987 8.66602C10.2654 8.66602 9.63781 8.9269 9.11603 9.44868C8.59337 9.97135 8.33203 10.5993 8.33203 11.3327C8.33203 12.066 8.59337 12.6936 9.11603 13.2153C9.63781 13.738 10.2654 13.9993 10.9987 13.9993ZM10.9987 23.7993C13.7098 21.3105 15.7209 19.0491 17.032 17.0153C18.3431 14.9825 18.9987 13.1771 18.9987 11.5993C18.9987 9.17713 18.2263 7.19357 16.6814 5.64868C15.1374 4.10468 13.2431 3.33268 10.9987 3.33268C8.75425 3.33268 6.85959 4.10468 5.3147 5.64868C3.7707 7.19357 2.9987 9.17713 2.9987 11.5993C2.9987 13.1771 3.65425 14.9825 4.96536 17.0153C6.27648 19.0491 8.28759 21.3105 10.9987 23.7993ZM10.9987 27.3327C7.42092 24.2882 4.74892 21.4602 2.9827 18.8487C1.21559 16.238 0.332031 13.8216 0.332031 11.5993C0.332031 8.26602 1.40448 5.61046 3.54936 3.63268C5.69337 1.6549 8.17648 0.666016 10.9987 0.666016C13.8209 0.666016 16.304 1.6549 18.448 3.63268C20.5929 5.61046 21.6654 8.26602 21.6654 11.5993C21.6654 13.8216 20.7823 16.238 19.016 18.8487C17.2489 21.4602 14.5765 24.2882 10.9987 27.3327Z" fill="#111C2C"/>
</svg>
