<svg width="18" height="18" viewBox="0 0 18 18" fill="none" xmlns="http://www.w3.org/2000/svg">
<path d="M15.1875 1.96875H11.8125C11.5887 1.96875 11.3741 2.05764 11.2158 2.21588C11.0576 2.37411 10.9687 2.58872 10.9687 2.8125C10.9687 3.03628 11.0576 3.25089 11.2158 3.40912C11.3741 3.56736 11.5887 3.65625 11.8125 3.65625H13.1484L10.8492 5.95547C9.65319 5.06165 8.16306 4.65397 6.67862 4.81446C5.19418 4.97495 3.82561 5.69171 2.84829 6.8205C1.87097 7.94929 1.35745 9.40635 1.41104 10.8985C1.46463 12.3906 2.08136 13.8071 3.13713 14.8628C4.1929 15.9186 5.60937 16.5353 7.10149 16.5889C8.59362 16.6425 10.0507 16.129 11.1795 15.1517C12.3083 14.1744 13.025 12.8058 13.1855 11.3214C13.346 9.83691 12.9383 8.34678 12.0445 7.15078L14.3437 4.85156V6.1875C14.3437 6.41128 14.4326 6.62589 14.5908 6.78412C14.7491 6.94236 14.9637 7.03125 15.1875 7.03125C15.4112 7.03125 15.6259 6.94236 15.7841 6.78412C15.9423 6.62589 16.0312 6.41128 16.0312 6.1875V2.8125C16.0312 2.58872 15.9423 2.37411 15.7841 2.21588C15.6259 2.05764 15.4112 1.96875 15.1875 1.96875ZM10.2937 13.6687C9.70393 14.2593 8.95223 14.6616 8.13373 14.8248C7.31523 14.988 6.46671 14.9048 5.69552 14.5856C4.92434 14.2665 4.26515 13.7257 3.80136 13.0319C3.33756 12.338 3.09001 11.5221 3.09001 10.6875C3.09001 9.85289 3.33756 9.03703 3.80136 8.34314C4.26515 7.64926 4.92434 7.10853 5.69552 6.78938C6.46671 6.47023 7.31523 6.38699 8.13373 6.5502C8.95223 6.7134 9.70393 7.11572 10.2937 7.70625C11.0838 8.49727 11.5275 9.56953 11.5275 10.6875C11.5275 11.8055 11.0838 12.8777 10.2937 13.6687Z" fill="white"/>
</svg>
