<svg width="250" height="250" viewBox="0 0 250 250" fill="none" xmlns="http://www.w3.org/2000/svg">
<path d="M103.149 177.938C105.099 179.9 108.274 179.905 110.23 177.948L190.957 97.2212C192.925 95.2534 192.908 92.0576 190.918 90.1115L183.788 83.1361C181.829 81.2201 178.693 81.2373 176.756 83.1748L110.22 149.711C108.267 151.664 105.101 151.664 103.149 149.711L72.9696 119.532C71.017 117.58 67.8512 117.58 65.8986 119.532L58.9902 126.44C57.0418 128.389 57.037 131.547 58.9796 133.501L103.149 177.938ZM124.999 249.165C108.029 249.165 91.9911 245.906 76.8841 239.387C61.7772 232.868 48.5845 223.97 37.306 212.691C26.0275 201.413 17.1289 188.22 10.6102 173.113C4.09141 158.006 0.832031 141.968 0.832031 124.999C0.832031 107.822 4.09141 91.6806 10.6102 76.5737C17.1289 61.4668 26.0275 48.3258 37.306 37.1508C48.5845 25.9758 61.7772 17.1289 76.8841 10.6102C91.9911 4.09141 108.029 0.832031 124.999 0.832031C142.175 0.832031 158.317 4.09141 173.424 10.6102C188.531 17.1289 201.672 25.9758 212.847 37.1508C224.022 48.3258 232.868 61.4668 239.387 76.5737C245.906 91.6806 249.165 107.822 249.165 124.999C249.165 141.968 245.906 158.006 239.387 173.113C232.868 188.22 224.022 201.413 212.847 212.691C201.672 223.97 188.531 232.868 173.424 239.387C158.317 245.906 142.175 249.165 124.999 249.165ZM124.999 230.54C154.385 230.54 179.322 220.245 199.809 199.654C220.297 179.063 230.54 154.178 230.54 124.999C230.54 95.6126 220.297 70.6758 199.809 50.1883C179.322 29.7008 154.385 19.457 124.999 19.457C95.8195 19.457 70.9345 29.7008 50.3435 50.1883C29.7525 70.6758 19.457 95.6126 19.457 124.999C19.457 154.178 29.7525 179.063 50.3435 199.654C70.9345 220.245 95.8195 230.54 124.999 230.54Z" fill="#3ED872"/>
</svg>
