<svg width="16" height="17" viewBox="0 0 16 17" fill="none" xmlns="http://www.w3.org/2000/svg">
<path d="M14.3901 11.06C12.7101 10.2 10.5301 9.5 8.00006 9.5C5.47007 9.5 3.29007 10.2 1.61007 11.06C1.12212 11.3113 0.713366 11.6929 0.429165 12.1625C0.144963 12.632 -0.00356536 13.1712 6.49903e-05 13.72V14.5C6.49903e-05 15.6 0.900065 16.5 2.00007 16.5H14.0001C15.1001 16.5 16.0001 15.6 16.0001 14.5V13.72C16.0001 12.6 15.3901 11.57 14.3901 11.06ZM5.78006 8.5H10.2201C11.4301 8.5 12.3601 7.44 12.2001 6.24L11.8801 3.79C11.5701 1.89 9.92006 0.5 8.00006 0.5C6.08006 0.5 4.43006 1.89 4.12006 3.79L3.80007 6.24C3.64007 7.44 4.57006 8.5 5.78006 8.5Z" fill="#818181"/>
</svg>
