<svg width="16" height="16" viewBox="0 0 16 16" fill="none" xmlns="http://www.w3.org/2000/svg">
<path d="M14.3901 10.56C12.7101 9.7 10.5301 9 8.00006 9C5.47007 9 3.29007 9.7 1.61007 10.56C1.12212 10.8113 0.713366 11.1929 0.429165 11.6625C0.144963 12.132 -0.00356536 12.6712 6.49903e-05 13.22V14C6.49903e-05 15.1 0.900065 16 2.00007 16H14.0001C15.1001 16 16.0001 15.1 16.0001 14V13.22C16.0001 12.1 15.3901 11.07 14.3901 10.56ZM5.78006 8H10.2201C11.4301 8 12.3601 6.94 12.2001 5.74L11.8801 3.29C11.5701 1.39 9.92006 0 8.00006 0C6.08006 0 4.43006 1.39 4.12006 3.29L3.80007 5.74C3.64007 6.94 4.57006 8 5.78006 8Z" fill="white"/>
</svg>
