<svg width="32" height="32" viewBox="0 0 32 32" fill="none" xmlns="http://www.w3.org/2000/svg">
<path d="M21.8146 18.666C21.9213 17.786 22.0013 16.906 22.0013 15.9993C22.0013 15.0927 21.9213 14.2127 21.8146 13.3327H26.3213C26.5346 14.186 26.668 15.0793 26.668 15.9993C26.668 16.9193 26.5346 17.8127 26.3213 18.666M19.4546 26.0793C20.2546 24.5993 20.868 22.9993 21.2946 21.3327H25.228C23.9362 23.557 21.8868 25.242 19.4546 26.0793ZM19.1213 18.666H12.8813C12.748 17.786 12.668 16.906 12.668 15.9993C12.668 15.0927 12.748 14.1993 12.8813 13.3327H19.1213C19.2413 14.1993 19.3346 15.0927 19.3346 15.9993C19.3346 16.906 19.2413 17.786 19.1213 18.666ZM16.0013 26.6127C14.8946 25.0127 14.0013 23.2393 13.4546 21.3327H18.548C18.0013 23.2393 17.108 25.0127 16.0013 26.6127ZM10.668 10.666H6.77463C8.05311 8.43563 10.101 6.748 12.5346 5.91935C11.7346 7.39935 11.1346 8.99935 10.668 10.666ZM6.77463 21.3327H10.668C11.1346 22.9993 11.7346 24.5993 12.5346 26.0793C10.1061 25.2416 8.0611 23.5563 6.77463 21.3327ZM5.6813 18.666C5.46797 17.8127 5.33464 16.9193 5.33464 15.9993C5.33464 15.0793 5.46797 14.186 5.6813 13.3327H10.188C10.0813 14.2127 10.0013 15.0927 10.0013 15.9993C10.0013 16.906 10.0813 17.786 10.188 18.666M16.0013 5.37268C17.108 6.97268 18.0013 8.75935 18.548 10.666H13.4546C14.0013 8.75935 14.8946 6.97268 16.0013 5.37268ZM25.228 10.666H21.2946C20.8773 9.01463 20.2594 7.42054 19.4546 5.91935C21.908 6.75935 23.948 8.45268 25.228 10.666ZM16.0013 2.66602C8.62797 2.66602 2.66797 8.66602 2.66797 15.9993C2.66797 19.5356 4.07273 22.927 6.57321 25.4274C7.81133 26.6656 9.28118 27.6477 10.8989 28.3177C12.5165 28.9878 14.2503 29.3327 16.0013 29.3327C19.5375 29.3327 22.9289 27.9279 25.4294 25.4274C27.9299 22.927 29.3346 19.5356 29.3346 15.9993C29.3346 14.2484 28.9898 12.5146 28.3197 10.8969C27.6496 9.27923 26.6675 7.80937 25.4294 6.57126C24.1913 5.33314 22.7214 4.35102 21.1037 3.68096C19.4861 3.01089 17.7523 2.66602 16.0013 2.66602Z" fill="#F0924F"/>
</svg>
