<svg width="18" height="28" viewBox="0 0 18 28" fill="none" xmlns="http://www.w3.org/2000/svg">
<path d="M15.4735 18.2656C13.9323 19.2172 11.8117 19.5945 10.411 19.7367L11.5867 20.8633L15.8785 25.0359C17.4479 26.6 14.8942 29.0445 13.3079 27.5352C12.2335 26.4742 10.6585 24.943 9.01605 23.3461L4.72417 27.5297C3.13792 29.0336 0.58417 26.5672 2.17042 25.0305C3.26167 23.9695 4.8198 22.4383 6.4623 20.8578L7.62105 19.7312C6.2373 19.5891 4.08292 19.2336 2.5248 18.2602C0.691045 17.1117 -0.11333 16.4391 0.59542 15.0336C1.01167 14.2352 2.15354 13.5625 3.66667 14.7219C3.66667 14.7219 5.70855 16.3023 9.0048 16.3023C12.301 16.3023 14.3429 14.7219 14.3429 14.7219C15.856 13.568 16.9923 14.2352 17.4142 15.0336C18.1117 16.4391 17.3073 17.1117 15.4735 18.2656ZM1.70355 7.09297C1.70355 3.17188 4.98292 0 8.99917 0C13.0154 0 16.2948 3.17188 16.2948 7.09297C16.2948 10.9977 13.0154 14.1695 8.99917 14.1695C4.98292 14.1695 1.70355 10.9977 1.70355 7.09297ZM5.41605 7.09297C5.41605 9.0125 7.0248 10.5766 8.99917 10.5766C10.9735 10.5766 12.5823 9.0125 12.5823 7.09297C12.5823 5.15703 10.9735 3.59297 8.99917 3.59297C7.0248 3.59297 5.41605 5.15703 5.41605 7.09297Z" fill="#F0924F"/>
</svg>
